<?xml version="1.0" encoding="UTF-8"?>
<!DOCTYPE svg PUBLIC "-//W3C//DTD SVG 1.1//EN" "http://www.w3.org/Graphics/SVG/1.1/DTD/svg11.dtd">
<!-- Creator: CorelDRAW 2020 (64 Bit) -->
<svg xmlns="http://www.w3.org/2000/svg" xml:space="preserve" width="164px" height="49px" version="1.1" style="shape-rendering:geometricPrecision; text-rendering:geometricPrecision; image-rendering:optimizeQuality; fill-rule:evenodd; clip-rule:evenodd"
viewBox="0 0 42.82 12.83"
 xmlns:xlink="http://www.w3.org/1999/xlink"
 xmlns:xodm="http://www.corel.com/coreldraw/odm/2003">
 <defs>
  <style type="text/css">
   <![CDATA[
    .fil0 {fill:#FEFEFE;fill-rule:nonzero}
   ]]>
  </style>
 </defs>
 <g id="Camada_x0020_1">
  <metadata id="CorelCorpID_0Corel-Layer"/>
  <path class="fil0" d="M6.68 1.63c0.05,0.13 0.1,0.26 0.14,0.39 0.03,0.13 0.06,0.27 0.07,0.41 0.05,0.27 0.05,0.57 0.02,0.91l-0.16 1.74 -0.16 1.76c-0.03,0.33 -0.09,0.62 -0.18,0.89 -0.09,0.28 -0.21,0.55 -0.37,0.81 -0.13,0.24 -0.31,0.46 -0.53,0.68 -0.21,0.2 -0.45,0.37 -0.7,0.51 -0.24,0.14 -0.52,0.24 -0.83,0.32 -0.32,0.08 -0.63,0.12 -0.95,0.12l-1.08 0 -1.1 0c-0.25,0 -0.47,-0.1 -0.63,-0.28 -0.17,-0.18 -0.24,-0.4 -0.22,-0.66l0.39 -4.15 0.38 -4.14c0.02,-0.26 0.13,-0.48 0.33,-0.67 0.2,-0.18 0.43,-0.27 0.69,-0.27l1.09 0 1.08 0c0.32,0 0.63,0.04 0.93,0.12 0.3,0.07 0.56,0.18 0.78,0.31 0.22,0.15 0.42,0.32 0.6,0.52 0.16,0.19 0.3,0.42 0.41,0.68zm35.93 1.33c0.09,0.22 0.15,0.45 0.19,0.67 0.01,0.11 0.02,0.22 0.02,0.34 0.01,0.13 0,0.25 -0.01,0.39l-0.23 2.48 -0.22 2.46c-0.03,0.25 -0.13,0.45 -0.31,0.62 -0.19,0.16 -0.41,0.25 -0.63,0.25 -0.24,0 -0.43,-0.09 -0.58,-0.25 -0.15,-0.17 -0.22,-0.37 -0.2,-0.62l0.08 -0.83 0.08 -0.84c0,-0.03 -0.01,-0.06 -0.03,-0.08 -0.02,-0.03 -0.05,-0.04 -0.08,-0.04l-0.9 0 -0.88 0c-0.03,0 -0.06,0.01 -0.09,0.04 -0.02,0.01 -0.04,0.04 -0.04,0.08l-0.08 0.84 -0.07 0.83c-0.03,0.25 -0.13,0.45 -0.31,0.62 -0.18,0.16 -0.39,0.25 -0.62,0.25 -0.25,0 -0.44,-0.09 -0.59,-0.25 -0.15,-0.17 -0.22,-0.37 -0.2,-0.62l0.23 -2.46 0.23 -2.48c0.02,-0.28 0.07,-0.52 0.15,-0.73 0.04,-0.12 0.09,-0.23 0.13,-0.34 0.05,-0.11 0.1,-0.22 0.18,-0.33 0.12,-0.18 0.26,-0.37 0.44,-0.54 0.09,-0.08 0.18,-0.15 0.28,-0.22 0.09,-0.06 0.19,-0.12 0.3,-0.18 0.2,-0.11 0.44,-0.2 0.69,-0.26 0.28,-0.06 0.54,-0.09 0.79,-0.09 0.14,0 0.28,0 0.41,0.02 0.13,0.02 0.25,0.04 0.37,0.07 0.25,0.06 0.46,0.15 0.64,0.26 0.11,0.06 0.2,0.12 0.28,0.18 0.08,0.07 0.16,0.14 0.23,0.22 0.14,0.17 0.26,0.35 0.35,0.54zm-3.56 3.03l0.88 0 0.9 0c0.03,0 0.06,-0.01 0.09,-0.04 0.01,-0.01 0.02,-0.03 0.03,-0.04 0,-0.01 0.01,-0.03 0.01,-0.04l0.07 -0.73 0.06 -0.72c0.02,-0.17 0.01,-0.33 -0.02,-0.49 -0.02,-0.13 -0.07,-0.25 -0.16,-0.39 -0.07,-0.11 -0.17,-0.19 -0.28,-0.23 -0.11,-0.06 -0.26,-0.09 -0.44,-0.09 -0.17,0 -0.32,0.03 -0.45,0.09 -0.12,0.04 -0.23,0.12 -0.32,0.23 -0.11,0.14 -0.19,0.26 -0.23,0.39 -0.06,0.16 -0.1,0.32 -0.12,0.49l-0.06 0.72 -0.07 0.73c0,0.03 0.01,0.06 0.03,0.08 0.02,0.03 0.05,0.04 0.08,0.04zm-3.59 0.71c0.12,-0.01 0.23,0.01 0.33,0.06 0.1,0.04 0.18,0.11 0.25,0.19 0.16,0.15 0.23,0.36 0.21,0.6l-0.01 0.04 0 0.03c-0.01,0.14 -0.03,0.26 -0.06,0.38 -0.02,0.13 -0.06,0.25 -0.09,0.37 -0.08,0.23 -0.19,0.45 -0.31,0.65 -0.13,0.2 -0.28,0.38 -0.45,0.54 -0.18,0.16 -0.37,0.3 -0.58,0.41 -0.07,0.04 -0.15,0.08 -0.23,0.11 -0.08,0.03 -0.16,0.06 -0.25,0.09 -0.18,0.05 -0.35,0.09 -0.53,0.11 -0.05,0.02 -0.08,0.03 -0.11,0.05 -0.02,0.01 -0.03,0.03 -0.04,0.04 -0.02,0.01 -0.03,0.02 -0.04,0.04l-0.01 0.04 -0.02 0.02c-0.01,0.02 -0.02,0.06 -0.01,0.11 0.03,0.03 0.06,0.05 0.08,0.06 0.07,0 0.14,0.02 0.19,0.03 0.06,0.02 0.12,0.04 0.18,0.06 0.11,0.05 0.2,0.11 0.28,0.19 0.09,0.09 0.16,0.2 0.22,0.33 0.04,0.12 0.05,0.26 0.04,0.41 -0.02,0.18 -0.06,0.34 -0.14,0.49 -0.04,0.07 -0.08,0.13 -0.13,0.19 -0.06,0.06 -0.12,0.12 -0.19,0.17 -0.13,0.11 -0.29,0.19 -0.47,0.25 -0.17,0.05 -0.35,0.07 -0.56,0.07 -0.07,0 -0.14,0 -0.2,0 -0.07,-0.01 -0.14,-0.01 -0.2,-0.02 -0.12,-0.02 -0.24,-0.06 -0.35,-0.11 -0.02,0 -0.03,-0.01 -0.05,-0.01 -0.02,-0.01 -0.03,-0.02 -0.04,-0.03 -0.02,-0.01 -0.04,-0.02 -0.06,-0.03 -0.01,-0.01 -0.03,-0.02 -0.06,-0.03 -0.1,-0.07 -0.16,-0.16 -0.17,-0.29 -0.01,-0.11 0.02,-0.23 0.1,-0.34 0.08,-0.09 0.18,-0.15 0.29,-0.18 0.05,0 0.1,0 0.15,0 0.06,0.01 0.11,0.03 0.15,0.06 0.03,0.02 0.05,0.03 0.06,0.04 0.01,0.01 0.02,0.01 0.03,0.01 0.01,0 0.02,0 0.02,0.01 0.03,0.02 0.06,0.03 0.09,0.03 0.04,0.01 0.07,0.01 0.11,0.02 0.04,0.01 0.07,0.01 0.1,0.02 0.03,0 0.07,0 0.11,0 0.05,0 0.11,0 0.19,-0.02 0.06,-0.01 0.11,-0.03 0.16,-0.07 0.03,-0.02 0.06,-0.05 0.09,-0.1 0.03,-0.03 0.04,-0.07 0.05,-0.11 0,-0.04 -0.01,-0.08 -0.03,-0.12 -0.01,-0.02 -0.03,-0.03 -0.04,-0.05 -0.01,-0.01 -0.03,-0.03 -0.04,-0.05 -0.05,-0.03 -0.11,-0.05 -0.16,-0.05 -0.03,-0.01 -0.06,-0.02 -0.09,-0.02 -0.03,-0.01 -0.06,-0.01 -0.1,-0.01 -0.04,0 -0.07,0.01 -0.09,0.01 -0.03,0 -0.05,0.01 -0.07,0.01 -0.02,0 -0.04,0.01 -0.05,0.01 -0.05,0.01 -0.1,0.01 -0.15,0 -0.01,-0.02 -0.03,-0.03 -0.05,-0.04 -0.02,-0.01 -0.04,-0.02 -0.06,-0.04l-0.08 -0.08 -0.09 -0.09c-0.04,-0.04 -0.07,-0.1 -0.08,-0.17 -0.01,-0.07 0.01,-0.13 0.04,-0.18l0.13 -0.23 0.12 -0.24c0.01,-0.01 0.01,-0.03 0,-0.04 0,0 -0.01,-0.02 -0.03,-0.04 -0.15,-0.02 -0.29,-0.06 -0.43,-0.11 -0.13,-0.04 -0.26,-0.1 -0.38,-0.17 -0.1,-0.07 -0.19,-0.13 -0.27,-0.2 -0.08,-0.06 -0.16,-0.14 -0.24,-0.22 -0.14,-0.17 -0.25,-0.35 -0.34,-0.54 -0.05,-0.1 -0.09,-0.21 -0.12,-0.32 -0.02,-0.11 -0.05,-0.22 -0.07,-0.33 -0.03,-0.22 -0.04,-0.47 -0.01,-0.74l0.15 -1.64 0.15 -1.64c0.03,-0.28 0.08,-0.52 0.15,-0.74 0.04,-0.11 0.09,-0.23 0.13,-0.33 0.05,-0.11 0.1,-0.21 0.18,-0.32 0.11,-0.19 0.26,-0.38 0.44,-0.55 0.09,-0.08 0.19,-0.15 0.28,-0.22 0.09,-0.07 0.19,-0.13 0.3,-0.18 0.2,-0.11 0.44,-0.2 0.69,-0.26 0.24,-0.06 0.5,-0.08 0.79,-0.08 0.3,0 0.56,0.02 0.78,0.08 0.25,0.06 0.46,0.15 0.64,0.26 0.16,0.08 0.29,0.18 0.4,0.29 0.06,0.05 0.11,0.11 0.16,0.17 0.05,0.07 0.1,0.13 0.15,0.19 0.13,0.2 0.18,0.4 0.14,0.62 -0.03,0.22 -0.15,0.4 -0.34,0.55 -0.19,0.13 -0.41,0.18 -0.65,0.16 -0.12,-0.01 -0.23,-0.05 -0.34,-0.1 -0.1,-0.05 -0.19,-0.13 -0.26,-0.23 -0.05,-0.06 -0.1,-0.12 -0.15,-0.18 -0.06,-0.06 -0.12,-0.11 -0.19,-0.15 -0.14,-0.09 -0.31,-0.14 -0.48,-0.14 -0.27,0 -0.5,0.09 -0.71,0.28 -0.09,0.09 -0.18,0.19 -0.25,0.3 -0.07,0.12 -0.12,0.24 -0.13,0.38l-0.16 1.7 -0.15 1.7c-0.02,0.19 -0.01,0.35 0.02,0.5 0.02,0.14 0.07,0.27 0.16,0.39 0.06,0.1 0.16,0.18 0.28,0.24 0.12,0.05 0.26,0.07 0.43,0.07 0.17,0 0.32,-0.02 0.45,-0.07 0.14,-0.06 0.25,-0.14 0.33,-0.24 0.11,-0.12 0.18,-0.25 0.23,-0.39 0.06,-0.15 0.1,-0.31 0.11,-0.49l0.01 -0.01c0.02,-0.22 0.12,-0.42 0.3,-0.6 0.18,-0.17 0.39,-0.25 0.62,-0.25zm-5.39 -3.74c0.09,0.22 0.15,0.45 0.19,0.67 0.01,0.11 0.02,0.22 0.02,0.34 0.01,0.13 0,0.25 -0.01,0.39l-0.15 1.64 -0.15 1.64c-0.01,0.13 -0.03,0.26 -0.06,0.38 -0.03,0.13 -0.06,0.25 -0.09,0.36 -0.09,0.24 -0.19,0.46 -0.31,0.65 -0.13,0.21 -0.28,0.39 -0.45,0.55 -0.18,0.16 -0.37,0.3 -0.58,0.41 -0.11,0.05 -0.22,0.1 -0.33,0.15 -0.12,0.04 -0.24,0.07 -0.36,0.1 -0.12,0.03 -0.25,0.05 -0.39,0.07 -0.13,0.01 -0.26,0.02 -0.41,0.02 -0.25,0 -0.5,-0.03 -0.77,-0.09 -0.11,-0.03 -0.22,-0.06 -0.33,-0.1 -0.11,-0.05 -0.21,-0.1 -0.32,-0.15 -0.09,-0.06 -0.18,-0.13 -0.26,-0.2 -0.08,-0.06 -0.16,-0.14 -0.24,-0.21 -0.14,-0.18 -0.26,-0.36 -0.34,-0.55 -0.05,-0.1 -0.09,-0.21 -0.12,-0.32 -0.02,-0.11 -0.05,-0.22 -0.07,-0.33 -0.03,-0.22 -0.04,-0.46 -0.01,-0.74l0.15 -1.64 0.15 -1.64c0.02,-0.28 0.07,-0.52 0.15,-0.73 0.04,-0.12 0.08,-0.23 0.13,-0.34 0.05,-0.11 0.1,-0.22 0.18,-0.33 0.12,-0.18 0.26,-0.37 0.44,-0.54 0.09,-0.08 0.18,-0.15 0.28,-0.22 0.09,-0.06 0.19,-0.12 0.3,-0.18 0.2,-0.11 0.44,-0.2 0.69,-0.26 0.28,-0.06 0.54,-0.09 0.79,-0.09 0.14,0 0.28,0 0.41,0.02 0.13,0.02 0.25,0.04 0.37,0.07 0.25,0.06 0.46,0.15 0.64,0.26 0.11,0.06 0.2,0.12 0.28,0.18 0.08,0.07 0.16,0.14 0.23,0.22 0.14,0.17 0.26,0.35 0.35,0.54zm-3.54 1.47l-0.14 1.57 -0.14 1.57c-0.02,0.19 -0.01,0.35 0.02,0.49 0.01,0.08 0.03,0.15 0.06,0.21 0.03,0.06 0.06,0.12 0.09,0.18 0.08,0.11 0.18,0.19 0.29,0.24 0.11,0.06 0.25,0.08 0.43,0.08 0.18,0 0.33,-0.02 0.45,-0.08 0.13,-0.05 0.24,-0.13 0.33,-0.24 0.05,-0.06 0.09,-0.12 0.13,-0.18 0.04,-0.06 0.07,-0.13 0.1,-0.21 0.06,-0.14 0.1,-0.3 0.11,-0.49l0.15 -1.57 0.14 -1.57c0.02,-0.17 0.01,-0.34 -0.02,-0.5 -0.02,-0.12 -0.07,-0.25 -0.16,-0.39 -0.07,-0.11 -0.17,-0.19 -0.28,-0.23 -0.11,-0.06 -0.26,-0.09 -0.44,-0.09 -0.18,0 -0.32,0.03 -0.45,0.09 -0.12,0.04 -0.23,0.12 -0.32,0.23 -0.11,0.14 -0.19,0.27 -0.23,0.39 -0.06,0.16 -0.1,0.33 -0.12,0.5zm-5.11 1.43l0.57 1.4 0.58 1.39c0.05,0.14 0.08,0.27 0.07,0.41 -0.01,0.13 -0.04,0.26 -0.09,0.39 -0.11,0.26 -0.3,0.47 -0.58,0.6 -0.28,0.14 -0.54,0.15 -0.8,0.06 -0.27,-0.1 -0.46,-0.27 -0.56,-0.52l-0.69 -1.68 -0.68 -1.67c-0.03,-0.05 -0.06,-0.09 -0.09,-0.12 -0.05,-0.03 -0.1,-0.04 -0.16,-0.04l-0.07 0 -0.09 0c-0.04,0 -0.07,0.01 -0.1,0.04 -0.03,0.03 -0.05,0.06 -0.05,0.1l-0.14 1.45 -0.13 1.44c-0.03,0.3 -0.15,0.55 -0.37,0.75 -0.22,0.21 -0.48,0.31 -0.76,0.31 -0.3,0 -0.54,-0.1 -0.73,-0.31 -0.18,-0.2 -0.26,-0.45 -0.23,-0.75l0.38 -4.08 0.37 -4.09c0.03,-0.26 0.14,-0.48 0.34,-0.67 0.2,-0.18 0.43,-0.27 0.69,-0.27l1.12 0 1.11 0c0.31,0 0.6,0.03 0.85,0.1 0.13,0.03 0.26,0.07 0.39,0.12 0.12,0.04 0.24,0.1 0.36,0.15 0.12,0.07 0.23,0.14 0.33,0.21 0.1,0.08 0.19,0.16 0.28,0.26 0.19,0.18 0.34,0.38 0.45,0.6 0.13,0.25 0.22,0.5 0.26,0.75 0.05,0.24 0.05,0.52 0.02,0.85 -0.03,0.32 -0.09,0.61 -0.18,0.85 -0.09,0.25 -0.22,0.5 -0.4,0.75 -0.07,0.1 -0.15,0.2 -0.24,0.3 -0.08,0.1 -0.18,0.19 -0.27,0.27 -0.19,0.17 -0.4,0.31 -0.65,0.45l-0.01 0 -0.02 0.01c-0.02,0.01 -0.05,0.04 -0.07,0.08 -0.02,0.03 -0.02,0.07 -0.01,0.11zm-2.37 -3.86l-0.1 1.04 -0.09 1.03c-0.01,0.06 0,0.1 0.03,0.11 0.03,0.02 0.06,0.04 0.1,0.04l0.42 0 0.41 0c0.17,0 0.33,-0.02 0.5,-0.07 0.14,-0.04 0.28,-0.12 0.43,-0.24 0.11,-0.08 0.21,-0.21 0.29,-0.36 0.07,-0.15 0.11,-0.32 0.13,-0.51 0.02,-0.2 0.01,-0.37 -0.04,-0.51 -0.05,-0.16 -0.13,-0.28 -0.22,-0.37 -0.13,-0.11 -0.26,-0.19 -0.39,-0.23 -0.15,-0.05 -0.32,-0.07 -0.48,-0.07l-0.42 0 -0.41 0c-0.04,0 -0.08,0.01 -0.11,0.04 -0.03,0.02 -0.05,0.05 -0.05,0.1zm-5.39 0.96c0.09,0.22 0.15,0.45 0.19,0.67 0.01,0.11 0.02,0.22 0.03,0.34 0,0.13 0,0.25 -0.01,0.39l-0.23 2.48 -0.23 2.46c-0.02,0.25 -0.12,0.45 -0.3,0.62 -0.2,0.16 -0.41,0.25 -0.64,0.25 -0.24,0 -0.43,-0.09 -0.58,-0.25 -0.15,-0.17 -0.21,-0.37 -0.19,-0.62l0.08 -0.83 0.07 -0.84c0.01,-0.03 0,-0.06 -0.03,-0.08 -0.02,-0.03 -0.04,-0.04 -0.07,-0.04l-0.9 0 -0.89 0c-0.03,0 -0.06,0.01 -0.08,0.04 -0.03,0.01 -0.04,0.04 -0.05,0.08l-0.07 0.84 -0.08 0.83c-0.02,0.25 -0.12,0.45 -0.3,0.62 -0.19,0.16 -0.39,0.25 -0.63,0.25 -0.24,0 -0.44,-0.09 -0.59,-0.25 -0.15,-0.17 -0.21,-0.37 -0.19,-0.62l0.23 -2.46 0.22 -2.48c0.03,-0.28 0.08,-0.52 0.15,-0.73 0.05,-0.12 0.09,-0.23 0.13,-0.34 0.05,-0.11 0.11,-0.22 0.18,-0.33 0.12,-0.18 0.27,-0.37 0.44,-0.54 0.09,-0.08 0.19,-0.15 0.28,-0.22 0.09,-0.06 0.19,-0.12 0.3,-0.18 0.21,-0.11 0.44,-0.2 0.7,-0.26 0.27,-0.06 0.53,-0.09 0.79,-0.09 0.14,0 0.27,0 0.4,0.02 0.13,0.02 0.25,0.04 0.38,0.07 0.24,0.06 0.46,0.15 0.64,0.26 0.1,0.06 0.19,0.12 0.27,0.18 0.08,0.07 0.16,0.14 0.23,0.22 0.14,0.17 0.26,0.35 0.35,0.54zm-3.56 3.03l0.89 0 0.9 0c0.03,0 0.06,-0.01 0.08,-0.04 0.01,-0.01 0.02,-0.03 0.03,-0.04 0.01,-0.01 0.01,-0.03 0.01,-0.04l0.07 -0.73 0.07 -0.72c0.01,-0.17 0,-0.33 -0.03,-0.49 -0.02,-0.13 -0.07,-0.25 -0.15,-0.39 -0.08,-0.11 -0.17,-0.19 -0.29,-0.23 -0.11,-0.06 -0.26,-0.09 -0.44,-0.09 -0.17,0 -0.32,0.03 -0.44,0.09 -0.12,0.04 -0.23,0.12 -0.33,0.23 -0.11,0.14 -0.18,0.26 -0.22,0.39 -0.07,0.16 -0.11,0.32 -0.12,0.49l-0.07 0.72 -0.06 0.73c-0.01,0.03 0,0.06 0.02,0.08 0.03,0.03 0.05,0.04 0.08,0.04zm-7.35 -3.95l-0.28 3.04 -0.28 3.04c0,0.05 0.01,0.09 0.04,0.12 0.03,0.02 0.07,0.03 0.1,0.03l0.38 0 0.39 0c0.22,0 0.41,-0.04 0.56,-0.11 0.16,-0.05 0.3,-0.15 0.42,-0.3 0.11,-0.12 0.21,-0.29 0.29,-0.49 0.07,-0.18 0.12,-0.39 0.14,-0.62l0.15 -1.67 0.16 -1.67c0.02,-0.22 0.01,-0.42 -0.03,-0.62 -0.04,-0.2 -0.11,-0.36 -0.2,-0.49 -0.05,-0.06 -0.1,-0.12 -0.16,-0.18 -0.06,-0.05 -0.13,-0.09 -0.2,-0.12 -0.14,-0.07 -0.32,-0.1 -0.54,-0.1l-0.39 0 -0.39 0c-0.04,0 -0.07,0.02 -0.1,0.04 -0.03,0.02 -0.05,0.06 -0.06,0.1z"/>
 </g>
</svg>
