<?xml version="1.0" encoding="UTF-8"?>
<!DOCTYPE svg PUBLIC "-//W3C//DTD SVG 1.1//EN" "http://www.w3.org/Graphics/SVG/1.1/DTD/svg11.dtd">
<!-- Creator: CorelDRAW 2020 (64 Bit) -->
<svg xmlns="http://www.w3.org/2000/svg" xml:space="preserve" width="773px" height="232px" version="1.1" style="shape-rendering:geometricPrecision; text-rendering:geometricPrecision; image-rendering:optimizeQuality; fill-rule:evenodd; clip-rule:evenodd"
viewBox="0 0 771.32 231.07"
 xmlns:xlink="http://www.w3.org/1999/xlink"
 xmlns:xodm="http://www.corel.com/coreldraw/odm/2003">
 <defs>
  <style type="text/css">
   <![CDATA[
    .fil1 {fill:#19582D;fill-rule:nonzero}
    .fil0 {fill:#427F2C;fill-rule:nonzero}
   ]]>
  </style>
 </defs>
 <g id="Camada_x0020_1">
  <metadata id="CorelCorpID_0Corel-Layer"/>
  <g id="_818009776">
   <path class="fil0" d="M49.59 36.74l-5.04 54.75 -5.04 54.75c0,0.9 0.18,1.62 0.72,2.16 0.54,0.36 1.26,0.54 1.8,0.54l6.84 0 7.02 0c3.97,0 7.39,-0.72 10.09,-1.98 2.88,-0.9 5.4,-2.7 7.56,-5.4 1.99,-2.16 3.79,-5.22 5.23,-8.83 1.26,-3.24 2.16,-7.02 2.52,-11.16l2.7 -30.08 2.88 -30.07c0.36,-3.97 0.18,-7.57 -0.54,-11.17 -0.72,-3.6 -1.98,-6.48 -3.6,-8.82 -0.9,-1.08 -1.8,-2.17 -2.88,-3.25 -1.08,-0.9 -2.34,-1.62 -3.6,-2.16 -2.53,-1.26 -5.77,-1.8 -9.73,-1.8l-7.02 0 -7.03 0c-0.72,0 -1.26,0.36 -1.8,0.72 -0.54,0.36 -0.9,1.08 -1.08,1.8l0 0zm132.37 71.14l16.03 0 16.21 0c0.54,0 1.08,-0.18 1.44,-0.72 0.18,-0.18 0.36,-0.54 0.54,-0.72 0.18,-0.18 0.18,-0.54 0.18,-0.72l1.26 -13.15 1.26 -12.97c0.18,-3.06 0,-5.94 -0.54,-8.82 -0.36,-2.34 -1.26,-4.5 -2.7,-7.03 -1.44,-1.98 -3.07,-3.42 -5.23,-4.14 -1.98,-1.08 -4.68,-1.62 -7.92,-1.62 -3.06,0 -5.76,0.54 -7.92,1.62 -2.17,0.72 -4.15,2.16 -5.95,4.14 -1.98,2.53 -3.24,4.69 -3.96,7.03 -1.26,2.88 -1.98,5.76 -2.16,8.82l-1.26 12.97 -1.08 13.15c-0.18,0.54 0,1.08 0.36,1.44 0.54,0.54 0.9,0.72 1.44,0.72l0 0zm64.12 -54.57c1.62,3.96 2.7,8.11 3.42,12.07 0.18,1.98 0.36,3.96 0.54,6.12 0,2.34 0,4.5 -0.18,7.03l-4.14 44.66 -4.15 44.3c-0.36,4.5 -2.16,8.11 -5.4,11.17 -3.6,2.88 -7.38,4.5 -11.52,4.5 -4.33,0 -7.75,-1.62 -10.45,-4.5 -2.7,-3.06 -3.78,-6.67 -3.42,-11.17l1.44 -14.95 1.26 -15.12c0.18,-0.54 0,-1.08 -0.54,-1.44 -0.36,-0.54 -0.72,-0.72 -1.26,-0.72l-16.21 0 -16.03 0c-0.54,0 -1.08,0.18 -1.44,0.72 -0.54,0.18 -0.72,0.72 -0.9,1.44l-1.26 15.12 -1.44 14.95c-0.36,4.5 -2.16,8.11 -5.4,11.17 -3.42,2.88 -7.03,4.5 -11.35,4.5 -4.32,0 -7.92,-1.62 -10.62,-4.5 -2.71,-3.06 -3.79,-6.67 -3.43,-11.17l4.15 -44.3 3.96 -44.66c0.54,-5.05 1.44,-9.37 2.7,-13.15 0.9,-2.17 1.62,-4.14 2.34,-6.13 0.9,-1.98 1.98,-3.96 3.24,-5.94 2.17,-3.24 4.87,-6.67 7.93,-9.73 1.62,-1.44 3.42,-2.7 5.04,-3.96 1.62,-1.08 3.42,-2.16 5.4,-3.24 3.79,-1.98 7.93,-3.6 12.61,-4.68 4.86,-1.08 9.55,-1.62 14.23,-1.62 2.52,0 4.86,0 7.2,0.36 2.34,0.36 4.5,0.72 6.85,1.26 4.32,1.08 8.28,2.7 11.52,4.68 1.8,1.08 3.42,2.16 4.86,3.24 1.44,1.26 2.89,2.52 4.15,3.96 2.52,3.06 4.68,6.31 6.3,9.73l0 0zm-125.71 -23.95c0.9,2.34 1.8,4.68 2.52,7.02 0.54,2.34 1.08,4.86 1.26,7.38 0.9,4.87 0.9,10.27 0.36,16.39l-2.88 31.34 -2.88 31.7c-0.55,5.94 -1.63,11.16 -3.25,16.03 -1.62,5.04 -3.78,9.9 -6.66,14.58 -2.34,4.33 -5.58,8.29 -9.54,12.25 -3.79,3.6 -8.11,6.66 -12.61,9.18 -4.32,2.53 -9.37,4.33 -14.95,5.77 -5.76,1.44 -11.35,2.16 -17.11,2.16l-19.45 0 -19.81 0c-4.5,0 -8.46,-1.8 -11.35,-5.04 -3.06,-3.24 -4.32,-7.21 -3.96,-11.89l7.02 -74.74 6.85 -74.56c0.36,-4.68 2.34,-8.64 5.94,-12.06 3.61,-3.25 7.75,-4.87 12.43,-4.87l19.63 0 19.45 0c5.76,0 11.35,0.72 16.75,2.17 5.4,1.26 10.09,3.24 14.05,5.58 3.96,2.7 7.56,5.76 10.8,9.37 2.89,3.42 5.4,7.56 7.39,12.24l0 0z"/>
   <path class="fil1" d="M343.15 36.02l-1.8 18.73 -1.62 18.55c-0.18,1.08 0,1.8 0.54,1.98 0.54,0.36 1.08,0.72 1.8,0.72l7.56 0 7.39 0c3.06,0 5.94,-0.36 9,-1.26 2.52,-0.72 5.04,-2.16 7.74,-4.32 1.99,-1.44 3.79,-3.78 5.23,-6.48 1.26,-2.7 1.98,-5.77 2.34,-9.19 0.36,-3.6 0.18,-6.66 -0.72,-9.18 -0.9,-2.88 -2.34,-5.04 -3.96,-6.67 -2.35,-1.98 -4.69,-3.42 -7.03,-4.14 -2.7,-0.9 -5.76,-1.26 -8.64,-1.26l-7.57 0 -7.38 0c-0.72,0 -1.44,0.18 -1.98,0.72 -0.54,0.36 -0.9,0.9 -0.9,1.8l0 0zm42.68 69.52l10.27 25.21 10.44 25.04c0.9,2.52 1.44,4.86 1.26,7.38 -0.18,2.34 -0.72,4.68 -1.62,7.02 -1.98,4.69 -5.4,8.47 -10.44,10.81 -5.04,2.52 -9.73,2.7 -14.41,1.08 -4.86,-1.8 -8.28,-4.86 -10.09,-9.37l-12.42 -30.25 -12.25 -30.08c-0.54,-0.9 -1.08,-1.62 -1.62,-2.16 -0.9,-0.54 -1.8,-0.72 -2.88,-0.72l-1.26 0 -1.62 0c-0.72,0 -1.26,0.18 -1.8,0.72 -0.54,0.54 -0.9,1.08 -0.9,1.8l-2.52 26.11 -2.34 25.94c-0.54,5.4 -2.7,9.9 -6.67,13.51 -3.96,3.78 -8.64,5.58 -13.69,5.58 -5.4,0 -9.72,-1.8 -13.14,-5.58 -3.25,-3.61 -4.69,-8.11 -4.15,-13.51l6.85 -73.48 6.66 -73.66c0.54,-4.68 2.52,-8.65 6.13,-12.07 3.6,-3.24 7.74,-4.86 12.42,-4.86l20.17 0 19.99 0c5.59,0 10.81,0.54 15.31,1.8 2.34,0.54 4.68,1.26 7.02,2.16 2.17,0.72 4.33,1.8 6.49,2.7 2.16,1.26 4.14,2.53 5.94,3.79 1.8,1.44 3.42,2.88 5.04,4.68 3.43,3.24 6.13,6.84 8.11,10.81 2.34,4.5 3.96,9 4.68,13.5 0.9,4.32 0.9,9.37 0.36,15.31 -0.54,5.77 -1.62,10.99 -3.24,15.31 -1.62,4.5 -3.96,9 -7.21,13.51 -1.26,1.8 -2.7,3.6 -4.32,5.4 -1.44,1.8 -3.24,3.42 -4.86,4.86 -3.42,3.06 -7.2,5.59 -11.71,8.11l-0.18 0 -0.36 0.18c-0.36,0.18 -0.9,0.72 -1.26,1.44 -0.36,0.54 -0.36,1.26 -0.18,1.98l0 0zm92.03 -25.76l-2.52 28.28 -2.52 28.28c-0.36,3.42 -0.18,6.3 0.36,8.82 0.18,1.44 0.54,2.7 1.08,3.78 0.54,1.08 1.08,2.16 1.62,3.24 1.44,1.99 3.24,3.43 5.22,4.33 1.98,1.08 4.5,1.44 7.75,1.44 3.24,0 5.94,-0.36 8.1,-1.44 2.34,-0.9 4.32,-2.35 5.94,-4.33 0.9,-1.08 1.62,-2.16 2.35,-3.24 0.72,-1.08 1.26,-2.34 1.8,-3.78 1.08,-2.52 1.8,-5.4 1.98,-8.82l2.7 -28.28 2.52 -28.28c0.36,-3.06 0.18,-6.12 -0.36,-9 -0.36,-2.16 -1.26,-4.5 -2.88,-7.02 -1.26,-1.99 -3.06,-3.43 -5.04,-4.15 -1.98,-1.08 -4.69,-1.62 -7.93,-1.62 -3.24,0 -5.76,0.54 -8.1,1.62 -2.16,0.72 -4.14,2.17 -5.76,4.15 -1.99,2.52 -3.43,4.86 -4.15,7.02 -1.08,2.88 -1.8,5.94 -2.16,9l0 0zm63.76 -26.47c1.62,3.96 2.7,8.11 3.42,12.07 0.18,1.98 0.36,3.96 0.36,6.12 0.18,2.34 0,4.5 -0.18,7.03l-2.7 29.53 -2.7 29.54c-0.18,2.34 -0.54,4.68 -1.08,6.84 -0.54,2.34 -1.08,4.5 -1.62,6.48 -1.62,4.33 -3.43,8.29 -5.59,11.71 -2.34,3.78 -5.04,7.02 -8.1,9.91 -3.24,2.88 -6.67,5.4 -10.45,7.38 -1.98,0.9 -3.96,1.8 -5.94,2.7 -2.16,0.72 -4.32,1.26 -6.49,1.8 -2.16,0.54 -4.5,0.9 -7.02,1.26 -2.34,0.18 -4.68,0.36 -7.38,0.36 -4.51,0 -9.01,-0.54 -13.87,-1.62 -1.98,-0.54 -3.96,-1.08 -5.95,-1.8 -1.98,-0.9 -3.78,-1.8 -5.76,-2.7 -1.62,-1.08 -3.24,-2.34 -4.68,-3.6 -1.44,-1.08 -2.88,-2.52 -4.32,-3.78 -2.53,-3.25 -4.69,-6.49 -6.13,-9.91 -0.9,-1.8 -1.62,-3.78 -2.16,-5.76 -0.36,-1.99 -0.9,-3.97 -1.26,-5.95 -0.54,-3.96 -0.72,-8.28 -0.18,-13.33l2.7 -29.53 2.7 -29.54c0.36,-5.04 1.26,-9.36 2.7,-13.15 0.72,-2.16 1.44,-4.14 2.35,-6.12 0.9,-1.98 1.8,-3.96 3.24,-5.94 2.16,-3.25 4.68,-6.67 7.92,-9.73 1.62,-1.44 3.24,-2.7 5.05,-3.96 1.62,-1.08 3.42,-2.16 5.4,-3.24 3.6,-1.98 7.92,-3.61 12.42,-4.68 5.05,-1.09 9.73,-1.63 14.23,-1.63 2.52,0 5.04,0 7.39,0.36 2.34,0.36 4.5,0.72 6.66,1.27 4.5,1.07 8.28,2.7 11.53,4.68 1.98,1.08 3.6,2.16 5.04,3.24 1.44,1.26 2.88,2.52 4.14,3.96 2.52,3.06 4.68,6.31 6.3,9.73l0.01 0zm97.07 67.36c2.16,-0.18 4.14,0.18 5.95,1.08 1.79,0.72 3.24,1.98 4.5,3.42 2.88,2.7 4.14,6.48 3.78,10.8l-0.18 0.72 0 0.54c-0.18,2.53 -0.54,4.69 -1.08,6.85 -0.36,2.34 -1.08,4.5 -1.62,6.66 -1.44,4.14 -3.42,8.11 -5.59,11.71 -2.34,3.6 -5.04,6.84 -8.1,9.72 -3.24,2.89 -6.66,5.41 -10.44,7.39 -1.27,0.72 -2.71,1.44 -4.15,1.98 -1.44,0.54 -2.88,1.08 -4.5,1.62 -3.24,0.9 -6.3,1.62 -9.55,1.98 -0.9,0.36 -1.44,0.54 -1.98,0.9 -0.36,0.18 -0.54,0.54 -0.72,0.72 -0.36,0.18 -0.54,0.36 -0.72,0.72l-0.18 0.72 -0.36 0.36c-0.18,0.36 -0.36,1.08 -0.18,1.98 0.54,0.54 1.08,0.9 1.44,1.08 1.26,0 2.52,0.36 3.42,0.55 1.08,0.35 2.17,0.72 3.25,1.07 1.98,0.91 3.6,1.99 5.04,3.43 1.62,1.62 2.88,3.6 3.96,5.94 0.72,2.16 0.9,4.68 0.72,7.38 -0.36,3.25 -1.08,6.13 -2.52,8.83 -0.72,1.26 -1.44,2.34 -2.34,3.42 -1.08,1.08 -2.16,2.16 -3.42,3.06 -2.35,1.99 -5.23,3.43 -8.47,4.51 -3.06,0.89 -6.3,1.26 -10.09,1.26 -1.26,0 -2.52,0 -3.6,0 -1.26,-0.18 -2.52,-0.18 -3.6,-0.37 -2.16,-0.35 -4.32,-1.07 -6.3,-1.98 -0.36,0 -0.54,-0.18 -0.9,-0.18 -0.36,-0.18 -0.54,-0.36 -0.72,-0.54 -0.36,-0.18 -0.72,-0.36 -1.08,-0.54 -0.18,-0.18 -0.54,-0.36 -1.08,-0.54 -1.8,-1.26 -2.88,-2.88 -3.06,-5.22 -0.18,-1.98 0.36,-4.14 1.8,-6.12 1.44,-1.62 3.24,-2.7 5.22,-3.24 0.9,0 1.8,0 2.7,0 1.08,0.17 1.98,0.54 2.7,1.07 0.54,0.37 0.9,0.55 1.08,0.72 0.18,0.19 0.36,0.19 0.54,0.19 0.18,0 0.36,0 0.36,0.18 0.54,0.35 1.08,0.54 1.62,0.54 0.72,0.18 1.26,0.18 1.98,0.36 0.72,0.17 1.26,0.17 1.8,0.36 0.54,0 1.26,0 1.98,0 0.91,0 1.99,0 3.43,-0.36 1.08,-0.18 1.98,-0.55 2.88,-1.27 0.54,-0.35 1.08,-0.9 1.62,-1.79 0.54,-0.55 0.72,-1.27 0.9,-1.99 0,-0.72 -0.18,-1.44 -0.54,-2.16 -0.18,-0.36 -0.54,-0.54 -0.72,-0.9 -0.18,-0.18 -0.54,-0.54 -0.72,-0.9 -0.9,-0.54 -1.98,-0.9 -2.88,-0.9 -0.54,-0.18 -1.08,-0.36 -1.62,-0.36 -0.54,-0.18 -1.08,-0.18 -1.8,-0.18 -0.72,0 -1.26,0.18 -1.62,0.18 -0.54,0 -0.9,0.18 -1.26,0.18 -0.36,0 -0.72,0.18 -0.9,0.18 -0.9,0.18 -1.8,0.18 -2.71,0 -0.18,-0.36 -0.54,-0.54 -0.9,-0.72 -0.36,-0.18 -0.72,-0.36 -1.08,-0.72l-1.44 -1.44 -1.62 -1.62c-0.72,-0.72 -1.26,-1.8 -1.44,-3.06 -0.18,-1.26 0.18,-2.34 0.72,-3.24l2.35 -4.15 2.16 -4.32c0.18,-0.18 0.18,-0.54 0,-0.72 0,0 -0.18,-0.36 -0.54,-0.72 -2.7,-0.36 -5.22,-1.08 -7.75,-1.98 -2.34,-0.72 -4.68,-1.8 -6.84,-3.06 -1.8,-1.26 -3.42,-2.34 -4.86,-3.6 -1.44,-1.08 -2.88,-2.53 -4.32,-3.97 -2.52,-3.06 -4.5,-6.3 -6.13,-9.72 -0.9,-1.8 -1.62,-3.78 -2.16,-5.77 -0.36,-1.98 -0.9,-3.96 -1.26,-5.94 -0.54,-3.96 -0.72,-8.46 -0.18,-13.33l2.7 -29.53 2.71 -29.54c0.54,-5.04 1.44,-9.36 2.7,-13.33 0.72,-1.98 1.62,-4.14 2.34,-5.94 0.9,-1.98 1.8,-3.78 3.24,-5.76 1.98,-3.43 4.68,-6.85 7.92,-9.91 1.63,-1.44 3.43,-2.7 5.05,-3.96 1.62,-1.26 3.42,-2.35 5.4,-3.24 3.6,-1.99 7.92,-3.61 12.42,-4.69 4.33,-1.08 9.01,-1.44 14.23,-1.44 5.4,0 10.09,0.36 14.05,1.44 4.5,1.08 8.28,2.7 11.53,4.69 2.88,1.44 5.22,3.24 7.2,5.22 1.08,0.9 1.98,1.98 2.88,3.06 0.9,1.26 1.8,2.34 2.7,3.42 2.35,3.6 3.25,7.21 2.53,11.17 -0.54,3.96 -2.71,7.2 -6.13,9.9 -3.42,2.35 -7.38,3.25 -11.7,2.89 -2.17,-0.18 -4.15,-0.9 -6.13,-1.8 -1.8,-0.9 -3.42,-2.35 -4.68,-4.15 -0.9,-1.08 -1.8,-2.16 -2.7,-3.24 -1.08,-1.08 -2.16,-1.98 -3.42,-2.7 -2.53,-1.62 -5.59,-2.52 -8.65,-2.52 -4.86,0 -9,1.62 -12.78,5.04 -1.62,1.62 -3.25,3.42 -4.51,5.4 -1.26,2.16 -2.16,4.32 -2.34,6.85l-2.88 30.61 -2.7 30.62c-0.36,3.42 -0.18,6.3 0.36,9 0.36,2.52 1.26,4.86 2.88,7.02 1.08,1.81 2.88,3.25 5.04,4.33 2.16,0.9 4.68,1.26 7.75,1.26 3.06,0 5.76,-0.36 8.1,-1.26 2.52,-1.08 4.5,-2.52 5.94,-4.33 1.99,-2.16 3.25,-4.5 4.15,-7.02 1.08,-2.7 1.8,-5.58 1.98,-8.82l0.18 -0.18c0.36,-3.97 2.16,-7.57 5.4,-10.81 3.24,-3.06 7.02,-4.5 11.17,-4.5l-0.01 0.01zm64.66 -12.79l15.84 0 16.21 0c0.54,0 1.08,-0.18 1.62,-0.72 0.18,-0.18 0.36,-0.54 0.54,-0.72 0,-0.18 0.18,-0.54 0.18,-0.72l1.26 -13.15 1.08 -12.97c0.36,-3.06 0.18,-5.94 -0.36,-8.82 -0.36,-2.34 -1.26,-4.5 -2.88,-7.03 -1.26,-1.98 -3.06,-3.42 -5.04,-4.14 -1.98,-1.08 -4.68,-1.62 -7.93,-1.62 -3.06,0 -5.76,0.54 -8.1,1.62 -2.16,0.72 -4.14,2.16 -5.76,4.14 -1.99,2.53 -3.43,4.69 -4.15,7.03 -1.08,2.88 -1.8,5.76 -2.16,8.82l-1.08 12.97 -1.26 13.15c0,0.54 0.18,1.08 0.54,1.44 0.36,0.54 0.9,0.72 1.44,0.72l0.01 0zm64.11 -54.57c1.62,3.96 2.7,8.11 3.42,12.07 0.19,1.98 0.36,3.96 0.36,6.12 0.18,2.34 0,4.5 -0.17,7.03l-4.15 44.66 -3.96 44.3c-0.54,4.5 -2.34,8.11 -5.58,11.17 -3.43,2.88 -7.39,4.5 -11.35,4.5 -4.32,0 -7.74,-1.62 -10.45,-4.5 -2.7,-3.06 -3.96,-6.67 -3.6,-11.17l1.44 -14.95 1.44 -15.12c0,-0.54 -0.18,-1.08 -0.54,-1.44 -0.36,-0.54 -0.9,-0.72 -1.44,-0.72l-16.21 0 -15.84 0c-0.54,0 -1.08,0.18 -1.62,0.72 -0.36,0.18 -0.72,0.72 -0.72,1.44l-1.44 15.12 -1.26 14.95c-0.54,4.5 -2.35,8.11 -5.59,11.17 -3.24,2.88 -7.02,4.5 -11.16,4.5 -4.51,0 -7.93,-1.62 -10.63,-4.5 -2.7,-3.06 -3.96,-6.67 -3.6,-11.17l4.14 -44.3 4.14 -44.66c0.36,-5.05 1.26,-9.37 2.7,-13.15 0.72,-2.17 1.62,-4.14 2.35,-6.13 0.9,-1.98 1.8,-3.96 3.24,-5.94 2.16,-3.24 4.68,-6.67 7.92,-9.73 1.62,-1.44 3.24,-2.7 5.04,-3.96 1.62,-1.08 3.43,-2.16 5.41,-3.24 3.6,-1.98 7.92,-3.6 12.42,-4.68 5.04,-1.08 9.73,-1.62 14.23,-1.62 2.52,0 5.04,0 7.38,0.36 2.35,0.36 4.51,0.72 6.67,1.26 4.5,1.08 8.28,2.7 11.52,4.68 1.99,1.08 3.61,2.16 5.05,3.24 1.44,1.26 2.88,2.52 4.14,3.96 2.52,3.06 4.68,6.31 6.3,9.73l0 0z"/>
  </g>
 </g>
</svg>
